<svg width="694" height="520" viewBox="0 0 694 520" fill="none" xmlns="http://www.w3.org/2000/svg">
<mask id="mask0" mask-type="alpha" maskUnits="userSpaceOnUse" x="0" y="0" width="694" height="520">
<rect width="694" height="520" fill="white"/>
</mask>
<g mask="url(#mask0)">
<path d="M186.447 432.495C253.4 355.053 291.807 257.013 295.273 154.7C298.739 52.386 267.055 -48.028 205.495 -129.824C143.936 -211.62 56.2166 -269.861 -43.0585 -294.853C-142.334 -319.844 -247.174 -310.076 -340.123 -267.176C-433.073 -224.275 -508.524 -150.831 -553.913 -59.0712C-599.302 32.6887 -611.892 137.228 -589.585 237.14C-567.278 337.052 -511.42 426.309 -431.313 490.05C-351.206 553.791 -251.682 588.17 -149.312 587.462" stroke="url(#paint0_linear)" stroke-width="8" stroke-linecap="round" stroke-linejoin="round"/>
<path d="M449.698 -104.95C393.823 -242.556 292.5 -356.871 162.598 -428.863C32.6962 -500.855 -117.946 -526.179 -264.247 -500.619C-410.548 -475.06 -543.681 -400.158 -641.478 -288.386C-739.275 -176.614 -795.836 -34.7153 -801.744 113.684C-807.652 262.084 -762.55 408.03 -673.948 527.222C-585.345 646.415 -458.588 731.662 -314.782 768.771C-170.976 805.88 -18.7972 792.611 116.417 731.174C251.63 669.736 361.72 563.837 428.357 431.109" stroke="url(#paint1_linear)" stroke-width="8" stroke-linecap="round" stroke-linejoin="round"/>
<path d="M129.35 163.857C134.718 99.6542 117.933 35.5498 81.7887 -17.7832C45.6446 -71.1162 -7.67727 -110.46 -69.299 -129.263C-130.921 -148.066 -197.124 -145.195 -256.887 -121.127C-316.649 -97.0588 -366.364 -53.2465 -397.755 3.01567C-429.146 59.2778 -440.318 124.595 -429.411 188.092C-418.504 251.588 -386.177 309.434 -337.811 351.996C-289.446 394.559 -227.96 419.271 -163.592 422.017C-99.2237 424.763 -35.8568 405.379 15.9585 367.091" stroke="url(#paint2_linear)" stroke-width="8" stroke-linecap="round" stroke-linejoin="round"/>
</g>
<defs>
<linearGradient id="paint0_linear" x1="9.5" y1="-58.5" x2="101.682" y2="477.407" gradientUnits="userSpaceOnUse">
<stop offset="0.166667" stop-color="#76CBFF"/>
<stop offset="1" stop-color="white"/>
</linearGradient>
<linearGradient id="paint1_linear" x1="-756.608" y1="244.866" x2="451.79" y2="34.2021" gradientUnits="userSpaceOnUse">
<stop offset="0.166667" stop-color="#76CBFF"/>
<stop offset="1" stop-color="white"/>
</linearGradient>
<linearGradient id="paint2_linear" x1="-152" y1="-263" x2="196" y2="502.5" gradientUnits="userSpaceOnUse">
<stop stop-color="#76CBFF"/>
<stop offset="0.671875" stop-color="white"/>
</linearGradient>
</defs>
</svg>
