<svg width="694" height="520" viewBox="0 0 694 520" fill="none" xmlns="http://www.w3.org/2000/svg">
<mask id="mask0" mask-type="alpha" maskUnits="userSpaceOnUse" x="0" y="0" width="694" height="520">
<rect width="694" height="520" fill="#C4C4C4"/>
</mask>
<g mask="url(#mask0)">
<path d="M379.815 266.348C417.939 361.357 487.456 440.441 576.792 490.432C666.128 540.423 769.893 558.306 870.809 541.103C971.726 523.899 1063.7 472.647 1131.43 395.881C1199.16 319.115 1238.55 221.466 1243.04 119.192C1247.53 16.9182 1216.86 -83.8087 1156.12 -166.218C1095.39 -248.628 1008.26 -307.747 909.239 -333.733C810.22 -359.72 705.287 -351.005 611.911 -309.039C518.536 -267.074 442.352 -194.391 396.044 -103.091" stroke="url(#paint0_linear)" stroke-width="8" stroke-linecap="round" stroke-linejoin="round"/>
<path d="M709.88 691.549C845.179 711.124 983.102 683.765 1100.68 614.026C1218.27 544.286 1308.41 436.376 1356.11 308.26C1403.82 180.144 1406.2 39.5542 1362.86 -90.1023C1319.52 -219.759 1233.07 -330.658 1117.92 -404.336C1002.76 -478.015 865.846 -510.026 729.962 -495.04C594.078 -480.054 467.426 -418.976 371.094 -321.974C274.763 -224.972 214.564 -97.9003 200.52 38.0846" stroke="url(#paint1_linear)" stroke-width="8" stroke-linecap="round" stroke-linejoin="round"/>
<path d="M589.377 -91.0088C545.639 -43.7029 519.426 17.1572 515.099 81.4386C510.773 145.72 528.596 209.544 565.601 262.283C602.605 315.023 656.558 353.497 718.477 371.298C780.395 389.1 846.543 385.155 905.907 360.121C965.272 335.087 1014.27 290.474 1044.74 233.71C1075.22 176.946 1085.33 111.456 1073.39 48.1446C1061.46 -15.167 1028.2 -72.4803 979.148 -114.253C930.098 -156.026 868.22 -179.737 803.816 -181.439" stroke="url(#paint2_linear)" stroke-width="8" stroke-linecap="round" stroke-linejoin="round"/>
</g>
<defs>
<linearGradient id="paint0_linear" x1="339.5" y1="196.5" x2="2231" y2="1250" gradientUnits="userSpaceOnUse">
<stop stop-color="#76CBFF"/>
<stop offset="0.242951" stop-color="white"/>
</linearGradient>
<linearGradient id="paint1_linear" x1="118" y1="186.5" x2="430.5" y2="-372.5" gradientUnits="userSpaceOnUse">
<stop stop-color="#76CBFF"/>
<stop offset="0.705294" stop-color="white"/>
</linearGradient>
<linearGradient id="paint2_linear" x1="517.5" y1="-11.5001" x2="1181" y2="912.5" gradientUnits="userSpaceOnUse">
<stop stop-color="#76CBFF"/>
<stop offset="0.494485" stop-color="white"/>
</linearGradient>
</defs>
</svg>
