<svg width="1280" height="586" viewBox="0 0 1280 586" fill="none" xmlns="http://www.w3.org/2000/svg">
<g clip-path="url(#clip0)">
<g opacity="0.6">
<path opacity="0.6" d="M611.659 402.432C613.543 398.751 615.833 395.199 618.508 391.839C639.995 365.001 679.159 360.657 705.997 382.144C732.834 403.631 737.179 442.796 715.692 469.633C713.188 472.758 710.448 475.583 707.516 478.086" stroke="white" stroke-miterlimit="10"/>
<path opacity="0.6" d="M685.666 490.157C666.576 496.085 645.003 492.768 628.224 479.328C611.51 465.952 603.527 445.706 605.046 425.867" stroke="white" stroke-miterlimit="10"/>
<path opacity="0.6" d="M722.797 458.483C733.005 470.724 737.799 480.205 734.76 484.015C728.682 491.591 693.67 473.656 656.538 443.951C619.407 414.246 594.239 384.006 600.317 376.408C603.334 372.62 613.564 375.188 627.668 382.401L632.547 378.827C590.536 351.069 556.914 337.222 549.51 346.468C539.43 359.052 581.762 409.687 644.061 459.553C706.361 509.418 765.022 539.616 775.102 527.032C782.507 517.765 761.598 487.974 725.258 453.025" stroke="white" stroke-miterlimit="10"/>
</g>
<g opacity="0.6">
<path opacity="0.6" d="M178.458 560.823C218.795 549.931 242.664 508.401 231.772 468.064C220.879 427.727 179.349 403.858 139.012 414.751C98.6753 425.643 74.8061 467.173 85.6988 507.51C96.5916 547.847 138.121 571.716 178.458 560.823Z" stroke="white" stroke-miterlimit="10"/>
<path opacity="0.6" d="M157.002 465.489C139.752 475.141 122.032 486.441 104.633 491.898C96.9069 494.274 90.0584 495.408 83.531 495.858C84.173 501.807 85.5427 507.757 87.6615 513.621C93.2472 514.327 98.9401 514.777 106.431 513.471C124.707 510.432 147.179 496.714 167.596 485.478C187.906 473.943 212.86 464.826 230.131 467.715C230.709 467.8 231.243 467.886 231.779 467.993C231.201 465.896 230.537 463.798 229.788 461.722C228.14 457.207 226.107 452.969 223.732 448.989C219.837 447.961 215.535 447.276 210.142 447.212C194.176 447.148 174.187 455.687 157.002 465.489Z" stroke="white" stroke-miterlimit="10"/>
<path opacity="0.6" d="M114.242 466.003C127.511 460.738 143.733 457.827 158.8 454.36C173.931 451 190.089 445.778 199.698 438.609C203.572 435.677 206.119 433.087 208.216 430.498C205.755 428.379 203.186 426.432 200.49 424.655C190.774 432.702 173.439 439.165 157.216 442.825C139.474 447.063 119.143 450.936 106.388 457.464C99.0471 461.166 95.4088 464.655 90.8717 468.55C88.8814 470.283 86.677 472.145 84.3014 474.178C83.5738 478.202 83.1457 482.289 83.0815 486.441C92.22 478.18 100.031 471.738 114.242 466.003Z" stroke="white" stroke-miterlimit="10"/>
<path opacity="0.6" d="M192.314 498.512C206.91 493.525 222.597 487.212 234.09 480.534C233.812 477.709 233.384 474.863 232.763 472.038C221.271 478.48 206.589 484.665 192.892 489.373C173.224 496.329 150.881 503.477 136.05 511.331C127.532 515.804 122.995 519.378 117.41 523.444C112.637 526.976 106.859 531.063 100.396 535.964C101.701 537.548 103.049 539.046 104.462 540.501C116.297 531.534 125.927 524.536 142.685 516.788C157.837 509.876 175.621 504.311 192.314 498.512Z" stroke="white" stroke-miterlimit="10"/>
<path opacity="0.6" d="M90.4651 455.216C107.736 450.808 128.067 438.502 146.665 428.293C156.36 422.793 167.125 417.828 177.59 414.468C163.251 410.766 147.693 411.237 132.754 416.715C113.386 423.799 98.6832 437.967 90.4651 455.216Z" stroke="white" stroke-miterlimit="10"/>
<path opacity="0.6" d="M175.728 516.596C158.479 526.248 140.758 537.548 123.359 543.005C118.801 544.396 114.563 545.381 110.497 546.023C118.801 552.893 128.495 557.922 138.854 560.747C154.027 555.118 170.785 545.124 186.343 536.585C199.141 529.308 213.78 523.016 227.199 520.063C230.409 513.279 232.592 506.023 233.683 498.533C232.185 498.405 230.58 498.319 228.889 498.298C212.903 498.255 192.914 506.794 175.728 516.596Z" stroke="white" stroke-miterlimit="10"/>
<path opacity="0.6" d="M156.082 563.379C165.584 563.722 175.322 562.266 184.781 558.799C197.494 554.155 208.194 546.429 216.37 536.82C210.634 536.82 204.898 537.077 197.494 539.367C184.589 543.262 170.207 553.042 156.082 563.379Z" stroke="white" stroke-miterlimit="10"/>
</g>
<g opacity="0.6">
<path opacity="0.6" d="M465.749 115.059C477.864 88.1071 465.836 56.437 438.884 44.3218C411.933 32.2066 380.263 44.2341 368.147 71.186C356.032 98.1378 368.06 129.808 395.012 141.923C421.963 154.038 453.633 142.011 465.749 115.059Z" stroke="white" stroke-miterlimit="10"/>
<path opacity="0.6" d="M427.885 81.732C414.681 77.1735 400.363 73.1287 389.299 66.5156C384.419 63.5622 380.588 60.4804 377.293 57.2274C374.468 60.352 371.964 63.8833 369.866 67.7783C372.113 71.0741 374.553 74.263 378.791 77.623C388.999 85.8411 406.805 91.2557 422.343 96.7559C437.987 102.063 454.53 110.924 461.143 121.41C461.379 121.753 461.571 122.074 461.764 122.416C462.599 121.132 463.39 119.784 464.14 118.414C465.745 115.418 467.029 112.336 468.013 109.211C466.729 106.665 465.06 104.075 462.556 101.186C455.065 92.711 441.154 86.1835 427.885 81.732Z" stroke="white" stroke-miterlimit="10"/>
<path opacity="0.6" d="M402.011 41.7541C412.477 48.7951 428.528 53.7389 442.674 58.7468C450.143 61.2722 457.826 64.6322 464.525 68.5701C459.731 59.2604 452.176 51.2777 442.246 45.9487C429.362 39.0789 414.98 37.9874 402.011 41.7541Z" stroke="white" stroke-miterlimit="10"/>
<path opacity="0.6" d="M409.716 115.632C396.511 111.073 382.193 107.028 371.129 100.415C368.261 98.6605 365.736 96.8842 363.489 95.0437C363.767 102.663 365.671 110.132 369.053 116.937C379.154 122.309 392.316 126.44 404.151 130.634C414.017 133.973 424.226 138.745 432.102 144.417C437.195 142.919 442.053 140.672 446.505 137.718C445.863 136.862 445.156 135.985 444.386 135.064C436.895 126.632 422.985 120.105 409.716 115.632Z" stroke="white" stroke-miterlimit="10"/>
</g>
<path opacity="0.6" d="M1109.48 67.6072C1095.35 85.2634 1069.56 88.1311 1051.91 73.9848C1034.25 59.8599 1031.38 34.0711 1045.53 16.415C1059.66 -1.24121 1085.44 -4.109 1103.1 10.0373C1120.76 24.1837 1123.6 49.951 1109.48 67.6072Z" stroke="white" stroke-miterlimit="10"/>
<path opacity="0.6" d="M487.381 170.441C480.383 179.173 467.628 180.585 458.896 173.608C450.164 166.61 448.752 153.855 455.729 145.123C462.727 136.391 475.482 134.979 484.214 141.956C492.967 148.954 494.38 161.709 487.381 170.441Z" stroke="white" stroke-miterlimit="10"/>
<g opacity="0.6">
<path opacity="0.6" d="M809.476 252.132C816.567 234.92 808.362 215.218 791.15 208.127C773.937 201.036 754.236 209.242 747.145 226.454C740.054 243.666 748.259 263.368 765.471 270.459C782.684 277.55 802.385 269.344 809.476 252.132Z" stroke="white" stroke-miterlimit="10"/>
<path opacity="0.6" d="M761.384 237.342C765.793 237.342 769.367 233.768 769.367 229.359C769.367 224.95 765.793 221.376 761.384 221.376C756.975 221.376 753.401 224.95 753.401 229.359C753.401 233.768 756.975 237.342 761.384 237.342Z" stroke="white" stroke-miterlimit="10"/>
<path opacity="0.6" d="M777.2 217.117C777.2 218.808 775.83 220.199 774.118 220.199C772.427 220.199 771.036 218.83 771.036 217.117C771.036 215.427 772.406 214.036 774.118 214.036C775.83 214.057 777.2 215.427 777.2 217.117Z" stroke="white" stroke-miterlimit="10"/>
<path opacity="0.6" d="M801.64 220.199C801.64 221.89 800.27 223.281 798.558 223.281C796.846 223.281 795.476 221.911 795.476 220.199C795.476 218.509 796.846 217.117 798.558 217.117C800.27 217.117 801.64 218.509 801.64 220.199Z" stroke="white" stroke-miterlimit="10"/>
<path opacity="0.6" d="M766.049 259.235C766.049 260.926 764.68 262.317 762.968 262.317C761.277 262.317 759.886 260.948 759.886 259.235C759.886 257.545 761.255 256.154 762.968 256.154C764.68 256.175 766.049 257.545 766.049 259.235Z" stroke="white" stroke-miterlimit="10"/>
<path opacity="0.6" d="M792.437 226.32C792.437 229.701 789.698 232.441 786.317 232.441C782.935 232.441 780.196 229.701 780.196 226.32C780.196 222.939 782.935 220.199 786.317 220.199C789.698 220.199 792.437 222.939 792.437 226.32Z" stroke="white" stroke-miterlimit="10"/>
<path opacity="0.6" d="M809.216 252.815C807.14 251.167 804.55 250.183 801.704 250.183C795.005 250.183 789.591 255.597 789.591 262.296C789.591 265.185 790.618 267.839 792.309 269.936C799.842 266.533 805.877 260.412 809.216 252.815Z" stroke="white" stroke-miterlimit="10"/>
</g>
<path d="M884.742 92.1118L882.922 90.2927L884.742 88.4736C884.956 88.2596 884.956 87.9171 884.742 87.7031C884.528 87.4891 884.185 87.4891 883.971 87.7031L882.152 89.5222L880.333 87.7031C880.119 87.4891 879.776 87.4891 879.562 87.7031C879.348 87.9171 879.348 88.2596 879.562 88.4736L881.382 90.2927L879.562 92.1118C879.348 92.3258 879.348 92.6682 879.562 92.8823C879.776 93.0963 880.119 93.0963 880.333 92.8823L882.152 91.0631L883.971 92.8823C884.185 93.0963 884.528 93.0963 884.742 92.8823C884.956 92.6682 884.956 92.3258 884.742 92.1118Z" fill="white"/>
<path d="M848.359 578.78L846.54 576.961L848.359 575.142C848.573 574.928 848.573 574.585 848.359 574.371C848.145 574.157 847.803 574.157 847.589 574.371L845.77 576.191L843.951 574.371C843.737 574.157 843.394 574.157 843.18 574.371C842.966 574.585 842.966 574.928 843.18 575.142L844.999 576.961L843.18 578.78C842.966 578.994 842.966 579.337 843.18 579.551C843.394 579.765 843.737 579.765 843.951 579.551L845.77 577.731L847.589 579.551C847.803 579.765 848.145 579.765 848.359 579.551C848.573 579.337 848.573 578.994 848.359 578.78Z" fill="white"/>
<path d="M5.54962 104.203L3.7305 102.384L5.54962 100.587C5.76363 100.373 5.76363 100.03 5.54962 99.8162C5.3356 99.6021 4.99318 99.6021 4.77917 99.8162L2.96004 101.635L1.14092 99.8162C0.926909 99.6021 0.584486 99.6021 0.370472 99.8162C0.156457 100.03 0.156457 100.373 0.370472 100.587L2.18959 102.406L0.370472 104.225C0.156457 104.439 0.156457 104.781 0.370472 104.995C0.584486 105.209 0.926909 105.209 1.14092 104.995L2.96004 103.176L4.77917 104.995C4.99318 105.209 5.3356 105.209 5.54962 104.995C5.76363 104.781 5.76363 104.417 5.54962 104.203Z" fill="white"/>
<path d="M96.9123 584.708L95.0932 582.889L96.9123 581.07C97.1263 580.856 97.1263 580.514 96.9123 580.3C96.6983 580.086 96.3559 580.086 96.1419 580.3L94.3014 582.119L92.4822 580.3C92.2682 580.086 91.9258 580.086 91.7118 580.3C91.4978 580.514 91.4978 580.856 91.7118 581.07L93.5309 582.889L91.7118 584.708C91.4978 584.922 91.4978 585.265 91.7118 585.479C91.9258 585.693 92.2682 585.693 92.4822 585.479L94.3014 583.66L96.1205 585.479C96.3345 585.693 96.6769 585.693 96.8909 585.479C97.1263 585.286 97.1263 584.944 96.9123 584.708Z" fill="white"/>
<path d="M552.313 189.831L550.494 188.011L552.313 186.192C552.527 185.978 552.527 185.636 552.313 185.422C552.099 185.208 551.757 185.208 551.543 185.422L549.724 187.241L547.905 185.422C547.691 185.208 547.348 185.208 547.134 185.422C546.92 185.636 546.92 185.978 547.134 186.192L548.953 188.011L547.134 189.831C546.92 190.045 546.92 190.387 547.134 190.601C547.348 190.815 547.691 190.815 547.905 190.601L549.724 188.782L551.543 190.601C551.757 190.815 552.099 190.815 552.313 190.601C552.527 190.408 552.527 190.045 552.313 189.831Z" fill="white"/>
<path d="M1077.33 543.596L1075.51 541.777L1077.33 539.958C1077.55 539.744 1077.55 539.402 1077.33 539.188C1077.12 538.974 1076.78 538.974 1076.56 539.188L1074.74 541.007L1072.92 539.188C1072.71 538.974 1072.37 538.974 1072.15 539.188C1071.94 539.402 1071.94 539.744 1072.15 539.958L1073.97 541.777L1072.15 543.596C1071.94 543.81 1071.94 544.153 1072.15 544.367C1072.37 544.581 1072.71 544.581 1072.92 544.367L1074.74 542.548L1076.56 544.367C1076.78 544.581 1077.12 544.581 1077.33 544.367C1077.57 544.153 1077.57 543.81 1077.33 543.596Z" fill="white"/>
<g opacity="0.6">
<path opacity="0.6" d="M1061.86 241.858C1061.86 242.478 1061.37 242.97 1060.75 242.97C1060.13 242.97 1059.63 242.478 1059.63 241.858C1059.63 241.237 1060.13 240.745 1060.75 240.745C1061.37 240.745 1061.86 241.237 1061.86 241.858Z" fill="url(#paint0_linear)"/>
<path opacity="0.6" d="M1130.54 100.801C1130.54 101.678 1129.81 102.406 1128.93 102.406C1128.05 102.406 1127.33 101.678 1127.33 100.801C1127.33 99.9233 1128.03 99.1957 1128.93 99.1957C1129.81 99.1957 1130.54 99.9233 1130.54 100.801Z" fill="url(#paint1_linear)"/>
<path opacity="0.6" d="M526.225 497.925C526.225 499.68 524.812 501.093 523.058 501.093C521.303 501.093 519.89 499.68 519.89 497.925C519.89 496.171 521.303 494.758 523.058 494.758C524.812 494.758 526.225 496.171 526.225 497.925Z" fill="white"/>
<path opacity="0.6" d="M604.34 326.265C604.34 329.175 601.965 331.551 599.054 331.551C596.143 331.551 593.768 329.175 593.768 326.265C593.768 323.354 596.143 320.979 599.054 320.979C601.965 320.979 604.34 323.354 604.34 326.265Z" fill="white"/>
<path opacity="0.6" d="M829.589 419.79C829.589 421.545 828.177 422.958 826.422 422.958C824.667 422.958 823.255 421.545 823.255 419.79C823.255 418.036 824.667 416.623 826.422 416.623C828.156 416.623 829.589 418.036 829.589 419.79Z" fill="white"/>
<path opacity="0.6" d="M630.386 270.642C630.386 272.397 628.973 273.81 627.218 273.81C625.463 273.81 624.051 272.397 624.051 270.642C624.051 268.887 625.463 267.475 627.218 267.475C628.973 267.475 630.386 268.887 630.386 270.642Z" fill="white"/>
<path opacity="0.6" d="M1218.39 478.943C1218.39 480.697 1216.98 482.11 1215.22 482.11C1213.47 482.11 1212.06 480.697 1212.06 478.943C1212.06 477.188 1213.47 475.775 1215.22 475.775C1216.96 475.775 1218.39 477.188 1218.39 478.943Z" fill="white"/>
<path opacity="0.6" d="M1157.31 439.714C1157.31 442.624 1154.93 445 1152.02 445C1149.11 445 1146.74 442.624 1146.74 439.714C1146.74 436.803 1149.11 434.427 1152.02 434.427C1154.96 434.427 1157.31 436.803 1157.31 439.714Z" fill="white"/>
<path opacity="0.6" d="M471.373 544.024C471.373 545.779 469.961 547.191 468.206 547.191C466.451 547.191 465.038 545.779 465.038 544.024C465.038 542.269 466.451 540.857 468.206 540.857C469.939 540.857 471.373 542.291 471.373 544.024Z" fill="white"/>
<path opacity="0.6" d="M1090.94 182.169C1090.94 182.897 1090.35 183.496 1089.62 183.496C1088.89 183.496 1088.29 182.897 1088.29 182.169C1088.29 181.441 1088.89 180.842 1089.62 180.842C1090.35 180.842 1090.94 181.441 1090.94 182.169Z" fill="white"/>
<path opacity="0.6" d="M1195.47 78.0938C1195.47 81.0044 1193.09 83.3799 1190.18 83.3799C1187.27 83.3799 1184.9 81.0044 1184.9 78.0938C1184.9 75.1832 1187.27 72.8076 1190.18 72.8076C1193.09 72.8076 1195.47 75.1832 1195.47 78.0938Z" fill="white"/>
<path opacity="0.6" d="M1217.11 133.759C1217.11 134.808 1216.25 135.664 1215.2 135.664C1214.15 135.664 1213.3 134.808 1213.3 133.759C1213.3 132.71 1214.15 131.854 1215.2 131.854C1216.27 131.854 1217.11 132.689 1217.11 133.759Z" fill="white"/>
<path opacity="0.6" d="M340.525 199.376C341.402 199.376 342.13 200.103 342.13 200.981C342.13 201.858 341.424 202.586 340.525 202.586C339.647 202.586 338.92 201.88 338.92 200.981C338.92 200.082 339.626 199.376 340.525 199.376Z" fill="url(#paint2_linear)"/>
<path opacity="0.6" d="M421.893 238.968C422.621 238.968 423.22 239.567 423.22 240.295C423.22 241.023 422.621 241.622 421.893 241.622C421.165 241.622 420.566 241.023 420.566 240.295C420.545 239.546 421.144 238.968 421.893 238.968Z" fill="white"/>
<path opacity="0.6" d="M235.593 107.735C238.504 107.735 240.88 110.11 240.88 113.021C240.88 115.932 238.504 118.307 235.593 118.307C232.683 118.307 230.307 115.932 230.307 113.021C230.307 110.089 232.662 107.735 235.593 107.735Z" fill="white"/>
<path opacity="0.6" d="M291.237 86.0764C292.286 86.0764 293.142 86.9325 293.142 87.9811C293.142 89.0298 292.286 89.8859 291.237 89.8859C290.189 89.8859 289.333 89.0298 289.333 87.9811C289.333 86.9325 290.189 86.0764 291.237 86.0764Z" fill="white"/>
<path opacity="0.6" d="M1196.52 522.751C1196.52 524.506 1195.11 525.919 1193.35 525.919C1191.6 525.919 1190.18 524.506 1190.18 522.751C1190.18 520.996 1191.6 519.584 1193.35 519.584C1195.11 519.584 1196.52 520.996 1196.52 522.751Z" fill="white"/>
<path opacity="0.6" d="M-2.24048 522.537C-2.24048 520.782 -0.827983 519.37 0.926934 519.37C2.68185 519.37 4.09434 520.782 4.09434 522.537C4.09434 524.292 2.68185 525.704 0.926934 525.704C-0.827983 525.704 -2.24048 524.292 -2.24048 522.537Z" fill="white"/>
<path opacity="0.6" d="M58.8394 561.766C58.8394 558.855 61.2149 556.48 64.1255 556.48C67.0361 556.48 69.4117 558.855 69.4117 561.766C69.4117 564.676 67.0361 567.052 64.1255 567.052C61.1935 567.052 58.8394 564.676 58.8394 561.766Z" fill="white"/>
<path opacity="0.6" d="M19.6318 478.728C19.6318 476.974 21.0443 475.561 22.7992 475.561C24.5542 475.561 25.9667 476.974 25.9667 478.728C25.9667 480.483 24.5542 481.896 22.7992 481.896C21.0443 481.896 19.6318 480.483 19.6318 478.728Z" fill="white"/>
<path opacity="0.6" d="M17.6842 182.233C17.6842 182.854 17.192 183.346 16.5714 183.346C15.9507 183.346 15.4585 182.854 15.4585 182.233C15.4585 181.613 15.9507 181.12 16.5714 181.12C17.192 181.12 17.6842 181.634 17.6842 182.233Z" fill="url(#paint3_linear)"/>
<path opacity="0.6" d="M46.7902 122.545C46.7902 123.272 46.191 123.872 45.4634 123.872C44.7357 123.872 44.1365 123.272 44.1365 122.545C44.1365 121.817 44.7357 121.218 45.4634 121.218C46.191 121.218 46.7902 121.817 46.7902 122.545Z" fill="white"/>
</g>
</g>
<defs>
<linearGradient id="paint0_linear" x1="1059.61" y1="241.866" x2="1061.85" y2="241.866" gradientUnits="userSpaceOnUse">
<stop stop-color="white"/>
<stop offset="1" stop-color="#FBE9F5"/>
</linearGradient>
<linearGradient id="paint1_linear" x1="1127.33" y1="100.803" x2="1130.53" y2="100.803" gradientUnits="userSpaceOnUse">
<stop stop-color="white"/>
<stop offset="1" stop-color="#FBE9F5"/>
</linearGradient>
<linearGradient id="paint2_linear" x1="340.521" y1="202.578" x2="340.521" y2="199.375" gradientUnits="userSpaceOnUse">
<stop stop-color="white"/>
<stop offset="1" stop-color="#FBE9F5"/>
</linearGradient>
<linearGradient id="paint3_linear" x1="15.4427" y1="182.243" x2="17.6849" y2="182.243" gradientUnits="userSpaceOnUse">
<stop stop-color="white"/>
<stop offset="1" stop-color="#FBE9F5"/>
</linearGradient>
<clipPath id="clip0">
<rect width="1280" height="586" fill="white"/>
</clipPath>
</defs>
</svg>
