<svg width="400" height="497" viewBox="0 0 400 497" fill="none" xmlns="http://www.w3.org/2000/svg">
<mask id="mask0" mask-type="alpha" maskUnits="userSpaceOnUse" x="0" y="0" width="400" height="497">
<rect width="400" height="497" rx="24" fill="#C4C4C4"/>
</mask>
<g mask="url(#mask0)">
<path d="M238.804 -105.903C189.568 -16.1482 172.562 87.7634 190.616 188.531C208.67 289.299 260.696 380.842 338.031 447.92C415.366 514.997 513.344 553.561 615.652 557.191C717.96 560.821 818.424 529.297 900.318 467.869C982.213 406.441 1040.59 318.815 1065.74 219.58C1090.89 120.345 1081.3 15.4893 1038.54 -77.529C995.792 -170.547 922.469 -246.115 830.782 -291.652C739.094 -337.188 634.576 -349.945 534.628 -327.798" stroke="url(#paint0_linear)" stroke-width="8" stroke-linecap="round" stroke-linejoin="round"/>
<path d="M350.463 110.368C350.463 174.795 372.531 237.278 412.994 287.414C453.456 337.55 509.87 372.313 572.845 385.917C635.819 399.521 701.553 391.143 759.102 362.179C816.651 333.216 862.543 285.413 889.137 226.731C915.73 168.049 921.421 102.028 905.262 39.6611C889.103 -22.7061 852.068 -77.6567 800.324 -116.041C748.58 -154.426 685.25 -173.929 620.877 -171.303C556.503 -168.676 494.972 -144.079 446.527 -101.607" stroke="url(#paint1_linear)" stroke-width="8" stroke-linecap="round" stroke-linejoin="round"/>
</g>
<defs>
<linearGradient id="paint0_linear" x1="485" y1="410.5" x2="210" y2="-256.5" gradientUnits="userSpaceOnUse">
<stop stop-color="white"/>
<stop offset="1" stop-color="#76CBFF"/>
</linearGradient>
<linearGradient id="paint1_linear" x1="336" y1="-232" x2="589.508" y2="387.148" gradientUnits="userSpaceOnUse">
<stop stop-color="white"/>
<stop offset="0.870599" stop-color="#76CBFF"/>
</linearGradient>
</defs>
</svg>
