<svg width="400" height="497" viewBox="0 0 400 497" fill="none" xmlns="http://www.w3.org/2000/svg">
<mask id="mask0" mask-type="alpha" maskUnits="userSpaceOnUse" x="0" y="0" width="400" height="497">
<rect width="400" height="497" rx="24" fill="#C4C4C4"/>
</mask>
<g mask="url(#mask0)">
<path d="M100.673 432.495C167.626 355.053 206.033 257.013 209.499 154.7C212.965 52.386 181.281 -48.028 119.722 -129.824C58.1624 -211.62 -29.5572 -269.861 -128.832 -294.853C-228.107 -319.844 -332.947 -310.076 -425.897 -267.176C-518.847 -224.275 -594.297 -150.831 -639.687 -59.0712C-685.076 32.6887 -697.665 137.228 -675.358 237.14C-653.051 337.052 -597.194 426.309 -517.087 490.05C-436.98 553.791 -337.456 588.17 -235.086 587.462" stroke="url(#paint0_linear)" stroke-width="8" stroke-linecap="round" stroke-linejoin="round"/>
<path d="M43.5763 163.857C48.9444 99.6542 32.159 35.5498 -3.9851 -17.7832C-40.1292 -71.1162 -93.4511 -110.46 -155.073 -129.263C-216.695 -148.066 -282.898 -145.195 -342.66 -121.127C-402.423 -97.0588 -452.138 -53.2465 -483.529 3.01567C-514.919 59.2778 -526.091 124.595 -515.185 188.092C-504.278 251.588 -471.951 309.434 -423.585 351.996C-375.219 394.559 -313.734 419.271 -249.366 422.017C-184.998 424.763 -121.631 405.379 -69.8153 367.091" stroke="url(#paint1_linear)" stroke-width="8" stroke-linecap="round" stroke-linejoin="round"/>
</g>
<defs>
<linearGradient id="paint0_linear" x1="179" y1="-272" x2="31.5" y2="561" gradientUnits="userSpaceOnUse">
<stop offset="0.307292" stop-color="#FF3465"/>
<stop offset="1" stop-color="white"/>
</linearGradient>
<linearGradient id="paint1_linear" x1="-117" y1="-99.5" x2="-25" y2="316.5" gradientUnits="userSpaceOnUse">
<stop stop-color="#FF3465"/>
<stop offset="1" stop-color="white"/>
</linearGradient>
</defs>
</svg>
